<svg xmlns="http://www.w3.org/2000/svg" width="1440" height="680" viewBox="0 0 1440 680" role="img" aria-labelledby="title">
<title id="title">Expense Tracker — Every penny. In perspective.</title>
<defs>
<linearGradient id="bg" x2="1" y2="1"><stop stop-color="#081B21"/><stop offset="1" stop-color="#102B32"/></linearGradient>
<linearGradient id="mint" x2="1" y2="1"><stop stop-color="#DCFFD4"/><stop offset="1" stop-color="#76DABE"/></linearGradient>
<linearGradient id="fade" x2="0" y2="1"><stop stop-color="#A1E5BD" stop-opacity=".22"/><stop offset="1" stop-color="#A1E5BD" stop-opacity="0"/></linearGradient>
<pattern id="dots" width="24" height="24" patternUnits="userSpaceOnUse"><circle cx="1" cy="1" r="1" fill="#AAD6C4" opacity=".09"/></pattern>
</defs>
<g font-family="Segoe UI, Arial, sans-serif">
<rect width="1440" height="680" rx="28" fill="url(#bg)"/>
<rect width="1440" height="680" rx="28" fill="url(#dots)"/>
<path d="M740 0H1412Q1440 0 1440 28V652Q1440 680 1412 680H975Z" fill="#15383B" opacity=".52"/>
<path d="M72 62H105V95H72Z" rx="7" fill="url(#mint)"/>
<path d="M81 77H97M81 83H92" stroke="#14342F" stroke-width="3" stroke-linecap="round"/>
<text x="120" y="86" font-size="17" letter-spacing="4" fill="#DCF2E5" font-weight="600">EXPENSE TRACKER</text>
<rect x="1122" y="62" width="246" height="36" rx="18" fill="#173C35" stroke="#476C55"/>
<circle cx="1142" cy="80" r="4" fill="#C9F6B7"/>
<text x="1157" y="85" font-size="12" font-weight="600" fill="#D7F7C7" letter-spacing="1.4">CORE RELEASE / COMPLETE</text>
<text x="72" y="162" font-size="13" fill="#A2C3B8" letter-spacing="3.8">PERSONAL FINANCE, MADE CLEAR.</text>
<text x="65" y="267" font-size="102" font-weight="700" fill="#F5F4E8" letter-spacing="-5">Every penny.</text>
<text x="65" y="373" font-size="102" font-weight="700" fill="url(#mint)" letter-spacing="-5">In perspective.</text>
<text x="74" y="438" font-size="21" fill="#BACFC5">A thoughtful home for your income, expenses,</text>
<text x="74" y="470" font-size="21" fill="#BACFC5">and the bigger financial picture.</text>
<rect x="74" y="514" width="176" height="42" rx="21" fill="#D9F5C6"/>
<text x="94" y="541" font-size="13" font-weight="700" fill="#14372E">TRACK. UNDERSTAND.</text>
<text x="270" y="541" font-size="14" fill="#D0DCD2">ASP.NET Core 8 + React</text>
<g transform="translate(1069 319)">
<circle r="190" fill="none" stroke="#79B09A" stroke-opacity=".11"/>
<circle r="153" fill="none" stroke="#79B09A" stroke-opacity=".18" stroke-dasharray="2 12"/>
<circle r="115" fill="none" stroke="#79B09A" stroke-opacity=".13" stroke-width="34"/>
<circle r="115" fill="none" stroke="url(#mint)" stroke-width="34" stroke-dasharray="535 723" transform="rotate(-88)"/>
<text x="0" y="-11" text-anchor="middle" font-size="14" fill="#A9C5B8" letter-spacing="3">ONE CLEAR VIEW</text>
<text x="0" y="28" text-anchor="middle" font-size="30" font-weight="700" fill="#F0F2E6">Your money.</text>
<circle cx="0" cy="-190" r="5" fill="#CBEFBC"/>
<circle cx="190" cy="0" r="5" fill="#73C6AB"/>
</g>
<rect x="922" y="494" width="306" height="57" rx="13" fill="#21433D" stroke="#487362"/>
<path d="M943 524L949 530 960 517" fill="none" stroke="#CEF6B7" stroke-width="2.5" stroke-linecap="round" stroke-linejoin="round"/>
<text x="973" y="519" font-size="12" fill="#AFC8BB" letter-spacing="1">BUILT AROUND YOUR WORKFLOW</text>
<text x="973" y="538" font-size="14" fill="#F3F6E8" font-weight="600">Record. Organize. Review.</text>
<path d="M72 596H1368" stroke="#43645B" stroke-opacity=".5"/>
<text x="74" y="637" font-size="14" fill="#A3BFB3">FULL-STACK APPLICATION</text>
<text x="720" y="637" text-anchor="middle" font-size="14" fill="#CBE9BC">CORE SCOPE / 100% COMPLETE</text>
<text x="1365" y="637" text-anchor="end" font-size="14" fill="#A3BFB3">SENIOR DEVELOPER / LEO</text>
</g></svg>
